<svg width="337" height="94" viewBox="0 0 337 94" fill="none" xmlns="http://www.w3.org/2000/svg">
<g clip-path="url(#clip0_121_2)">
<path d="M105.774 62.2134V72.3894C105.774 72.7094 105.934 72.8694 106.254 72.8694H110.094C110.414 72.8694 110.574 72.7094 110.574 72.3894V55.1094L102.99 51.7494C102.414 51.5574 101.614 51.2374 100.59 50.7894C99.5661 50.2774 98.6381 49.5414 97.8061 48.5814C97.0381 47.6214 96.6541 46.3094 96.6541 44.6454V22.7574C96.6541 20.0694 97.4861 17.9254 99.1501 16.3254C100.814 14.6614 102.99 13.8294 105.678 13.8294H110.67C113.358 13.8294 115.534 14.6614 117.198 16.3254C118.862 17.9254 119.694 20.0694 119.694 22.7574V36.9654L110.574 36.1974V23.2374C110.574 22.9174 110.414 22.7574 110.094 22.7574H106.254C105.934 22.7574 105.774 22.9174 105.774 23.2374V43.3014L113.358 46.6614C113.934 46.9174 114.734 47.2694 115.758 47.7174C116.782 48.1654 117.678 48.8694 118.446 49.8294C119.278 50.7894 119.694 52.1014 119.694 53.7654V72.8694C119.694 75.5574 118.862 77.7334 117.198 79.3974C115.534 80.9974 113.358 81.7974 110.67 81.7974H105.678C102.99 81.7974 100.814 80.9974 99.1501 79.3974C97.4861 77.7334 96.6541 75.5574 96.6541 72.8694V62.2134H105.774ZM148.52 72.8694C148.52 75.5574 147.688 77.7334 146.024 79.3974C144.36 80.9974 142.184 81.7974 139.496 81.7974H132.584C129.896 81.7974 127.72 80.9974 126.056 79.3974C124.392 77.7334 123.56 75.5574 123.56 72.8694V22.7574C123.56 20.0694 124.392 17.9254 126.056 16.3254C127.72 14.6614 129.896 13.8294 132.584 13.8294H139.496C142.184 13.8294 144.36 14.6614 146.024 16.3254C147.688 17.9254 148.52 20.0694 148.52 22.7574V72.8694ZM133.16 22.7574C132.84 22.7574 132.68 22.9174 132.68 23.2374V72.3894C132.68 72.7094 132.84 72.8694 133.16 72.8694H138.92C139.24 72.8694 139.4 72.7094 139.4 72.3894V23.2374C139.4 22.9174 139.24 22.7574 138.92 22.7574H133.16ZM177.471 72.4854L176.703 81.4134H153.759V23.1414H152.319L153.279 14.2134H162.879V72.4854H177.471ZM201.696 72.4854L200.928 81.4134H179.904V23.1414H178.464L179.424 14.2134H201.696L200.736 23.1414H189.024V43.3014H199.776L198.816 52.2294H189.024V72.4854H201.696ZM222.298 14.2134H231.418L225.466 81.4134H209.53L203.578 14.2134H212.698L217.498 67.3014L222.298 14.2134ZM257.009 72.4854L256.241 81.4134H235.217V23.1414H233.777L234.737 14.2134H257.009L256.049 23.1414H244.337V43.3014H255.089L254.129 52.2294H244.337V72.4854H257.009ZM259.382 23.1414L260.342 14.2134H275.51C278.198 14.2134 280.374 15.0454 282.038 16.7094C283.702 18.3094 284.534 20.4534 284.534 23.1414V53.1894C284.534 54.5974 284.246 55.8774 283.67 57.0294C283.094 58.1174 282.326 59.0454 281.366 59.8134L287.51 81.4134H278.294L272.822 62.1174H269.942V81.4134H260.822V23.1414H259.382ZM274.934 23.1414H269.942V53.1894H274.934C275.254 53.1894 275.414 53.0294 275.414 52.7094V23.6214C275.414 23.3014 275.254 23.1414 274.934 23.1414ZM313.895 72.4854C313.895 75.1734 313.063 77.3494 311.399 79.0134C309.735 80.6134 307.559 81.4134 304.871 81.4134H297.959C295.271 81.4134 293.095 80.6134 291.431 79.0134C289.767 77.3494 288.935 75.1734 288.935 72.4854V23.1414C288.935 20.4534 289.767 18.3094 291.431 16.7094C293.095 15.0454 295.271 14.2134 297.959 14.2134H304.871C307.559 14.2134 309.735 15.0454 311.399 16.7094C313.063 18.3094 313.895 20.4534 313.895 23.1414V38.5014H304.775V23.6214C304.775 23.3014 304.615 23.1414 304.295 23.1414H298.535C298.215 23.1414 298.055 23.3014 298.055 23.6214V72.0054C298.055 72.3254 298.215 72.4854 298.535 72.4854H304.295C304.615 72.4854 304.775 72.3254 304.775 72.0054V52.1334H301.031L301.799 43.2054H313.895V72.4854ZM339.977 72.4854L339.209 81.4134H318.185V23.1414H316.745L317.705 14.2134H339.977L339.017 23.1414H327.305V43.3014H338.057L337.097 52.2294H327.305V72.4854H339.977Z" fill="black"/>
<path fill-rule="evenodd" clip-rule="evenodd" d="M17.5692 63.5692C27.2724 80.3757 48.7628 86.134 65.5692 76.4308C82.3757 66.7276 88.134 45.2372 78.4308 28.4308C68.7276 11.6243 47.2372 5.86601 30.4308 15.5692C13.6243 25.2724 7.86602 46.7628 17.5692 63.5692ZM28.0994 47.6726C34.6491 59.017 49.1551 62.9038 60.4994 56.3542C71.8438 49.8045 75.7306 35.2985 69.181 23.9542C62.6313 12.6098 48.1253 8.72294 36.781 15.2726C25.4366 21.8223 21.5497 36.3283 28.0994 47.6726Z" fill="black"/>
</g>
<defs>
<clipPath id="clip0_121_2">
<rect width="337" height="94" fill="white"/>
</clipPath>
</defs>
</svg>
